<svg id="Слой_1" data-name="Слой 1" xmlns="http://www.w3.org/2000/svg" viewBox="0 0 40.33 31.63"><defs><style>.cls-1,.cls-5,.cls-7{fill:#00a19a;}.cls-1,.cls-2,.cls-3,.cls-4,.cls-5,.cls-6,.cls-7{stroke:#1d1d1b;}.cls-1,.cls-2,.cls-6,.cls-7{stroke-linecap:round;stroke-linejoin:round;}.cls-1{stroke-width:0.75px;}.cls-2,.cls-3{fill:#fff;}.cls-2{stroke-width:0.5px;}.cls-3,.cls-4,.cls-5{stroke-miterlimit:10;}.cls-3,.cls-4,.cls-5,.cls-6,.cls-7{stroke-width:0.25px;}.cls-4,.cls-6{fill:none;}</style></defs><title>Butovay texnika</title><rect class="cls-1" x="6.81" y="4.56" width="25.03" height="20.36"/><rect class="cls-2" x="8.28" y="5.76" width="22.08" height="17.96"/><circle class="cls-3" cx="12.94" cy="9.7" r="3.15"/><circle class="cls-4" cx="25.09" cy="19.67" r="2.96"/><circle class="cls-4" cx="25.09" cy="9.7" r="2.02"/><circle class="cls-4" cx="12.94" cy="19.67" r="1.8"/><rect class="cls-2" x="25.09" y="0.25" width="15" height="9.45"/><rect class="cls-3" x="38.15" y="1.8" width="1.45" height="1"/><circle class="cls-3" cx="38.95" cy="7.97" r="0.58"/><circle class="cls-3" cx="38.95" cy="6.76" r="0.33"/><polyline class="cls-5" points="37.67 3.22 37.67 1.3 26 1.3 26 7.07"/><polyline class="cls-5" points="25.9 8.2 37.67 8.2 37.67 4.56"/><rect class="cls-2" x="0.25" y="10.2" width="12.69" height="21.19"/><path class="cls-6" d="M6,26.89c.13.82,5.76.62,12.6-.44" transform="translate(-5.76 -10.37)"/><rect class="cls-7" x="8.97" y="11.9" width="2.51" height="1.39"/><line class="cls-6" x1="2.02" y1="14.97" x2="2.02" y2="20.79"/><line class="cls-4" x1="13.66" y1="28.63" x2="13.66" y2="25.8"/><line class="cls-4" x1="26.27" y1="25.8" x2="13.53" y2="25.8"/><line class="cls-4" x1="27.43" y1="25.8" x2="29.02" y2="25.8"/><line class="cls-4" x1="24.28" y1="3.71" x2="24.28" y2="0.89"/><line class="cls-4" x1="24.41" y1="3.71" x2="11.53" y2="3.71"/><line class="cls-4" x1="8.99" y1="3.71" x2="10.59" y2="3.71"/></svg>